<?xml version="1.0" encoding="UTF-8" standalone="no"?>
<svg width="40px" height="40px" viewBox="0 0 40 40" version="1.1" xmlns="http://www.w3.org/2000/svg" xmlns:xlink="http://www.w3.org/1999/xlink">
    <defs></defs>
    <g id="Page-1" stroke="none" stroke-width="1" fill="none" fill-rule="evenodd">
        <g id="Artboard-1">
            <g id="alert-check" transform="translate(2.000000, 2.000000)">
                <rect id="Body" stroke="#FFFFFF" stroke-width="2" x="0" y="0" width="36" height="36" rx="20"></rect>
                <path d="M23.714,14.31 C24.0979471,14.7247881 24.0979471,15.3652119 23.714,15.78 L18.152,21.69 C17.9740312,21.885888 17.7216602,21.9975762 17.457,21.9975762 C17.1923398,21.9975762 16.9399688,21.885888 16.762,21.69 C16.3780529,21.2752119 16.3780529,20.6347881 16.762,20.22 L22.324,14.31 C22.5019688,14.114112 22.7543398,14.0024238 23.019,14.0024238 C23.2836602,14.0024238 23.5360312,14.114112 23.714,14.31 L23.714,14.31 Z" id="i" fill="#FFFFFF"></path>
                <path d="M18.152,20.22 C18.5359471,20.6347881 18.5359471,21.2752119 18.152,21.69 C17.9740312,21.885888 17.7216602,21.9975762 17.457,21.9975762 C17.1923398,21.9975762 16.9399688,21.885888 16.762,21.69 C16.762,21.69 16.2239525,21.1188276 15.9549287,20.8332414 L13.286,18 C12.9045061,17.5804188 12.9045061,16.9395812 13.286,16.52 C13.466448,16.3285267 13.7178964,16.2199809 13.981,16.2199809 C14.2441036,16.2199809 14.495552,16.3285267 14.676,16.52 L18.152,20.22 Z" id="i" fill="#FFFFFF"></path>
            </g>
        </g>
    </g>
</svg>