<?xml version="1.0" encoding="UTF-8" standalone="no"?>
<svg width="40px" height="40px" viewBox="0 0 40 40" version="1.1" xmlns="http://www.w3.org/2000/svg" xmlns:xlink="http://www.w3.org/1999/xlink">
    <defs></defs>
    <g id="Page-1" stroke="none" stroke-width="1" fill="none" fill-rule="evenodd">
        <g id="Artboard-1">
            <g id="Icon" transform="translate(2.000000, 2.000000)">
                <g id="alert-info">
                    <rect id="Body" stroke="#FFFFFF" stroke-width="2" x="0" y="0" width="36" height="36" rx="20"></rect>
                    <path d="M18,11 C18.5522847,11 19,11.4477153 19,12 L19,13 C19,13.5522847 18.5522847,14 18,14 C17.4477153,14 17,13.5522847 17,13 L17,12 C17,11.4477153 17.4477153,11 18,11 L18,11 Z M18,16 C18.5522847,16 19,16.4477153 19,17 L19,25 C19,25.5522847 18.5522847,26 18,26 C17.4477153,26 17,25.5522847 17,25 L17,17 C17,16.4477153 17.4477153,16 18,16 L18,16 Z" id="i" fill="#FFFFFF"></path>
                </g>
            </g>
        </g>
    </g>
</svg>